<svg width="152" height="325" viewBox="0 0 152 325" fill="none" xmlns="http://www.w3.org/2000/svg">
<g opacity="0.3">
<path d="M112.779 149.037C108.508 137.707 102.793 127.19 96.2846 116.995C85.197 99.6642 71.7412 84.2891 55.9975 71.0676C41.6887 59.1094 26.0329 49.155 8.50301 42.5692C-5.54992 37.3431 -19.9557 34.1029 -35.1553 36.7133C-43.2122 38.1265 -50.6288 41.1241 -56.7526 46.7481C-57.0807 48.0328 -57.1203 48.1256 -57.7153 48.7501C-62.5552 53.548 -66.1865 59.2399 -69.207 65.2993C-77.1862 81.5809 -81.0925 98.9811 -82.7702 116.94C-83.8527 129.128 -83.8481 141.338 -82.8492 153.53C-80.9868 176.817 -75.6 199.293 -67.179 221.081C-65.6709 225.003 -63.3553 228.445 -61.9797 232.42C-61.5942 232.802 -61.1821 233.25 -60.8629 233.658C-60.4122 233.63 -59.922 233.509 -59.5504 233.666C-57.0687 234.659 -55.8382 233.701 -54.5978 231.433C-51.4439 225.704 -47.9184 220.132 -44.6715 214.442C-43.5893 212.545 -42.5574 211.667 -40.0896 212.436C-33.2168 214.574 -26.2392 216.208 -19.3536 218.187C-17.9739 218.551 -17.3512 218.376 -16.5724 217.063C-12.9026 210.894 -8.95404 204.844 -5.56293 198.558C-4.28297 196.197 -3.06337 196.165 -0.993825 196.711C5.6398 198.638 12.3525 200.38 18.9861 202.307C20.8965 202.84 21.8898 202.439 22.893 200.728C26.4037 194.547 30.1269 188.511 33.6643 182.396C34.6013 180.712 35.7141 180.415 37.5584 180.976C44.2849 182.942 51.0243 184.749 57.7903 186.623C59.5416 187.144 60.7079 186.98 61.8297 184.99C65.2079 178.863 69.1041 173.064 72.4557 166.871C73.6961 164.603 75.0353 164.676 76.9457 165.21C82.4912 166.732 88.0633 168.32 93.5821 169.776C99.7908 171.414 99.5783 171.269 102.852 165.645C105.966 160.008 109.054 154.306 112.779 149.037Z" fill="#FFDAC6"/>
<path d="M112.906 149.272C109.177 154.539 106.086 160.24 102.875 165.835C99.5985 171.458 99.811 171.602 93.601 169.968C88.0545 168.449 82.5078 166.93 76.9612 165.411C75.0504 164.879 73.7109 164.807 72.4691 167.074C69.0871 173.199 65.2139 179.062 61.832 185.187C60.709 187.176 59.6085 187.314 57.7906 186.821C51.0232 184.951 44.2825 183.148 37.5547 181.185C35.7101 180.626 34.6234 180.989 33.6588 182.606C30.1176 188.719 26.4173 194.82 22.8762 200.932C21.9382 202.616 20.9048 203.111 18.9674 202.512C12.3325 200.589 5.68463 198.825 -1.01654 196.928C-3.11318 196.318 -4.33318 196.35 -5.58787 198.776C-8.98275 205.06 -12.9351 211.109 -16.6088 217.275C-17.3488 218.495 -18.0113 218.763 -19.3913 218.4C-26.2783 216.425 -33.2574 214.795 -40.1315 212.661C-42.5998 211.894 -43.6323 212.771 -44.7157 214.668C-47.966 220.356 -51.5217 225.86 -54.6524 231.654C-55.8941 233.921 -57.1254 234.879 -59.6075 233.887C-59.9791 233.73 -60.4696 233.852 -60.9204 233.88C-60.2934 235.622 -59.3351 237.23 -58.3769 238.838C-52.7203 248.448 -45.7927 257.006 -37.621 264.448C-27.4294 273.836 -15.9426 281.089 -2.69784 285.636C7.14951 289.024 17.1261 290.824 27.589 290.586C30.7982 290.517 33.8862 289.576 37.0703 290.207C43.407 289.104 49.4505 287.276 55.3331 284.668C61.812 281.819 68.025 278.694 73.9181 274.777C88.869 264.667 100.432 251.704 108.62 235.732C117.562 218.38 121.395 200.023 120.121 180.661C119.527 169.85 117.118 159.311 112.906 149.272Z" fill="#FFAF84"/>
<path d="M-61.8534 232.849C-63.1436 228.894 -65.4933 225.368 -67.0752 221.455C-75.5381 199.563 -80.9392 177.051 -82.8684 153.599C-83.8882 141.355 -83.9132 129.095 -82.8502 116.858C-81.2675 98.855 -77.3874 81.3895 -69.3637 65.0273C-66.4174 58.9747 -62.7932 53.2654 -57.8917 48.429C-57.2973 47.8029 -57.2579 47.7098 -56.9317 46.4204C-64.5229 52.0353 -70.0769 59.4506 -74.8725 67.4082C-85.9785 85.865 -91.6904 106.232 -94.5199 127.44C-97.6818 151.638 -96.3076 175.623 -90.7424 199.303C-88.4725 209.112 -85.7122 218.801 -81.5345 227.993C-78.575 228.263 -75.9559 229.597 -73.1146 230.146C-69.3304 230.932 -65.7937 232.821 -61.8534 232.849Z" fill="#FFAF84"/>
<path d="M-61.2687 232.302C-65.1721 232.272 -68.6769 230.396 -72.3996 229.681C-75.2147 229.134 -77.81 227.81 -80.7421 227.54C-72.6295 247.612 -59.4369 263.64 -41.3364 275.388C-20.2168 289.13 3.0572 294.423 28.1064 291.648C31.1802 291.325 34.2539 291.001 37.1663 289.901C34.0091 289.263 30.8858 290.219 27.7712 290.253C17.4029 290.462 7.51115 288.642 -2.25669 285.24C-15.3945 280.674 -26.8239 273.35 -36.9222 264.034C-45.0669 256.53 -51.9548 247.984 -57.5595 238.459C-58.5134 236.854 -59.4407 235.314 -60.0933 233.511C-60.4762 233.13 -60.8858 232.683 -61.2687 232.302Z" fill="#F1874D"/>
</g>
</svg>
