<svg width="124" height="100" viewBox="0 0 124 100" fill="none" xmlns="http://www.w3.org/2000/svg">
<path d="M101.434 60.6546C101.542 56.0866 101.03 51.5993 100.195 47.1119C98.7661 39.4807 96.2326 32.1988 92.5941 25.3468C89.2789 19.1397 85.2092 13.4432 80.0074 8.66027C75.8298 4.84466 71.248 1.67394 65.5611 0.437901C62.5425 -0.206991 59.5238 -0.206992 56.586 0.894698C56.2896 1.29775 56.2626 1.32462 55.9661 1.45898C53.5944 2.45318 51.519 3.93106 49.6054 5.6239C44.5115 10.1919 40.6843 15.7272 37.5578 21.7731C35.4556 25.8842 33.7306 30.1566 32.3561 34.5634C29.7148 42.9739 28.4211 51.5993 28.2863 60.4128C28.2594 61.9982 28.5828 63.5298 28.5019 65.1151C28.5828 65.3032 28.6636 65.5182 28.7176 65.7063C28.8793 65.76 29.0679 65.7869 29.1757 65.8944C29.9034 66.593 30.4694 66.4318 31.2241 65.8138C33.1377 64.2553 35.1591 62.8043 37.0997 61.2727C37.7465 60.7621 38.2317 60.6009 38.9863 61.2189C41.0886 62.9386 43.2986 64.4971 45.4279 66.1631C45.8591 66.4855 46.1017 66.5124 46.5599 66.1631C48.716 64.524 50.953 62.9655 53.0284 61.2458C53.81 60.6009 54.2412 60.7621 54.8881 61.2458C56.9364 62.858 59.0387 64.4165 61.087 66.0287C61.68 66.4855 62.0843 66.4855 62.6772 66.0287C64.7795 64.3628 66.9356 62.7774 69.0379 61.1383C69.6039 60.6815 70.0351 60.7352 70.6011 61.192C72.6764 62.8311 74.7787 64.4165 76.881 66.0287C77.42 66.4587 77.8513 66.5661 78.5251 66.0287C80.5734 64.3628 82.7565 62.8849 84.8049 61.192C85.5596 60.574 86.0177 60.789 86.6107 61.2458C88.3356 62.5624 90.0606 63.906 91.7855 65.1957C93.726 66.6467 93.6721 66.5661 95.6127 65.0614C97.4993 63.5298 99.386 61.9713 101.434 60.6546Z" fill="#FFDAC6"/>
<path d="M101.445 60.7546C99.3961 62.0703 97.5086 63.6277 95.594 65.1313C93.6525 66.6349 93.7064 66.7155 91.7649 65.2656C90.0392 63.9499 88.3134 62.6342 86.5876 61.3185C85.9944 60.862 85.5359 60.6472 84.7809 61.2648C82.7316 62.9295 80.5474 64.4332 78.498 66.0979C77.8239 66.6349 77.4194 66.5275 76.8531 66.0979C74.7498 64.4869 72.6465 62.9027 70.5702 61.2648C70.0039 60.8083 69.5725 60.7815 69.0062 61.2111C66.9029 62.849 64.7457 64.46 62.6424 66.0979C62.0761 66.5544 61.6447 66.5812 61.0514 66.0979C59.0021 64.4869 56.9257 62.9295 54.8494 61.3185C54.2022 60.8083 53.7708 60.6472 52.9888 61.3185C50.9125 63.0369 48.6743 64.5943 46.5171 66.2322C46.0857 66.5544 45.816 66.5544 45.3846 66.2322C43.2543 64.5674 41.0431 63.0101 38.9398 61.2917C38.1848 60.6741 37.6994 60.8352 37.0523 61.3454C35.1108 62.8758 33.0884 64.2989 31.1738 65.8831C30.4188 66.5007 29.8525 66.6618 29.1245 65.9637C29.0166 65.8563 28.8278 65.8294 28.6661 65.7757C28.6391 66.4738 28.747 67.1719 28.8548 67.8701C29.475 72.0319 30.6885 76.0058 32.4951 79.7649C34.7333 84.4906 37.7264 88.6525 41.7173 92.1162C44.6835 94.6939 47.9193 96.7345 51.6136 98.1308C52.7461 98.5604 53.9595 98.6678 54.9842 99.339C57.3572 99.8492 59.7301 100.064 62.157 99.9834C64.8266 99.9029 67.4422 99.6881 70.0578 99.1511C76.7183 97.728 82.5967 94.8281 87.7201 90.3978C93.302 85.5915 97.2389 79.7112 99.531 72.7569C100.852 68.8904 101.499 64.8628 101.445 60.7546Z" fill="#FFAF84"/>
<path d="M28.4855 65.2829C28.5933 63.717 28.2699 62.151 28.2699 60.5581C28.4046 51.7023 29.6983 43.0625 32.3397 34.5847C33.7142 30.1569 35.4392 25.864 37.5414 21.7331C40.641 15.6582 44.4682 10.0964 49.5891 5.50651C51.4758 3.80556 53.5511 2.3206 55.9499 1.32162C56.2463 1.18663 56.2733 1.15963 56.5698 0.754639C53.1199 1.64562 50.1282 3.45457 47.3251 5.56051C40.8296 10.4474 35.9513 16.7652 31.9623 23.785C27.4343 31.8038 24.5235 40.3896 23.122 49.4614C22.529 53.2143 22.1247 56.9942 22.2865 60.8011C23.2837 61.314 24.0114 62.151 24.9278 62.745C26.1406 63.555 27.1109 64.716 28.4855 65.2829Z" fill="#FFAF84"/>
<path d="M28.7674 65.1742C27.406 64.6117 26.445 63.46 25.2438 62.6832C24.3362 62.0939 23.6154 61.2636 22.6277 60.7546C22.6277 68.9242 24.9768 76.3973 29.6483 83.0668C35.0939 90.8614 42.4882 96.0042 51.6444 98.5756C52.7655 98.897 53.8867 99.2184 55.0612 99.2452C54.0468 98.5756 52.8189 98.4684 51.7244 98.0399C48.0673 96.647 44.864 94.6113 41.9277 92.0399C37.9769 88.5846 35.0139 84.4061 32.7982 79.7187C31.0097 75.9419 29.8085 71.9777 29.1945 67.8528C29.0877 67.1563 28.981 66.4867 29.0077 65.7635C28.9276 65.576 28.8475 65.3617 28.7674 65.1742Z" fill="#F1874D"/>
<path d="M115.726 71.8716C115.989 70.7478 115.647 69.7678 114.732 68.9983C114.433 68.7529 114.175 68.4672 113.884 68.1973C113.683 67.9869 113.457 67.7678 113.231 67.5487C112.253 66.646 110.926 66.6427 110.008 67.5879C109.124 68.5172 109.154 69.8286 110.139 70.7892C110.349 70.975 110.526 71.1766 110.727 71.3869C111.074 71.7322 111.414 72.0197 111.688 72.3387C111.753 72.3896 111.809 72.4649 111.849 72.507C112.809 73.4588 113.841 73.3569 114.539 73.1079L114.73 73.0377L115.606 72.1329L115.726 71.8716Z" fill="#FFAF84"/>
<path d="M118.185 62.3444C119.306 62.3021 120.242 61.3079 120.25 60.121C120.252 58.8762 119.325 57.9086 118.114 57.8913C116.507 57.8986 114.876 57.8972 113.309 57.9465L112.395 57.952C111.843 57.9486 111.31 58.2011 110.948 58.5974C110.308 59.2269 110.102 60.0387 110.331 60.8679C110.472 61.2501 110.678 61.6007 110.92 61.8531C111.292 62.2072 111.749 62.3982 112.268 62.4174C114.319 62.403 116.289 62.3868 118.185 62.3444Z" fill="#FFAF84"/>
<path d="M115.621 49.1414C115.568 48.5138 115.3 47.9475 114.846 47.5917C113.956 46.831 112.719 46.8873 111.844 47.7097C111.592 47.9517 111.364 48.2025 111.112 48.4445C111.019 48.5497 110.926 48.6549 110.818 48.7268C110.725 48.832 110.632 48.9372 110.524 49.0091C110.305 49.2353 110.086 49.4615 109.833 49.7035C109.048 50.5855 108.998 51.8128 109.771 52.6699C109.811 52.712 109.851 52.7541 109.916 52.8049C110.328 53.2011 110.866 53.4762 111.393 53.4708C111.937 53.4988 112.476 53.3041 112.888 52.9253C113.652 52.2572 114.401 51.4734 115.144 50.6317C115.489 50.2845 115.657 49.7357 115.621 49.1414Z" fill="#FFAF84"/>
<path d="M8.04714 71.8716C7.78453 70.7478 8.12639 69.7678 9.04116 68.9983C9.34082 68.7529 9.59843 68.4672 9.88934 68.1973C10.0909 67.9869 10.317 67.7678 10.543 67.5487C11.5209 66.646 12.8473 66.6427 13.7652 67.5879C14.6499 68.5172 14.6199 69.8286 13.635 70.7892C13.4247 70.975 13.2477 71.1766 13.0461 71.3869C12.6991 71.7322 12.3592 72.0197 12.0858 72.3387C12.0209 72.3896 11.9649 72.4649 11.9246 72.507C10.9642 73.4588 9.93219 73.3569 9.23488 73.1079L9.04391 73.0377L8.168 72.1329L8.04714 71.8716Z" fill="#FFAF84"/>
<path d="M5.58883 62.3444C4.46746 62.3021 3.532 61.3079 3.52346 60.121C3.52194 58.8762 4.449 57.9086 5.65975 57.8913C7.26647 57.8986 8.89773 57.8972 10.4642 57.9465L11.3788 57.952C11.9307 57.9486 12.4633 58.2011 12.8259 58.5974C13.4653 59.2269 13.672 60.0387 13.4423 60.8679C13.302 61.2501 13.0952 61.6007 12.8534 61.8531C12.4818 62.2072 12.0245 62.3982 11.5059 62.4174C9.45408 62.403 7.48466 62.3868 5.58883 62.3444Z" fill="#FFAF84"/>
<path d="M8.15302 49.1414C8.2057 48.5138 8.47388 47.9475 8.92775 47.5917C9.81799 46.831 11.055 46.8873 11.9292 47.7097C12.1814 47.9517 12.4092 48.2025 12.6614 48.4445C12.7543 48.5497 12.8471 48.6549 12.9557 48.7268C13.0486 48.832 13.1414 48.9372 13.2501 49.0091C13.469 49.2353 13.688 49.4615 13.9403 49.7035C14.7251 50.5855 14.7757 51.8128 14.0028 52.6699C13.9625 52.712 13.9222 52.7541 13.8574 52.8049C13.4455 53.2011 12.9076 53.4762 12.3802 53.4708C11.837 53.4988 11.2974 53.3041 10.8857 52.9253C10.1219 52.2572 9.37208 51.4734 8.62932 50.6317C8.28421 50.2845 8.11611 49.7357 8.15302 49.1414Z" fill="#FFAF84"/>
</svg>
